<svg width="16" height="16" viewBox="0 0 16 16" fill="none" xmlns="http://www.w3.org/2000/svg">
<path d="M8 0.665039C12.0504 0.665195 15.334 3.94934 15.334 8V8.03711C15.314 12.0713 12.0382 15.335 8 15.335C6.8836 15.3349 5.82715 15.085 4.88086 14.6396L6.125 13.1611C6.71089 13.3748 7.34223 13.4931 8 13.4932C11.0298 13.4932 13.4941 11.0289 13.4941 7.99902C13.4939 4.96924 11.0296 2.50586 8 2.50586C4.97051 2.50602 2.50705 4.96997 2.50684 7.99902C2.50684 8.98032 2.76618 9.90239 3.21875 10.7002L1.97559 12.1777C1.15061 10.9922 0.665039 9.55428 0.665039 8C0.665039 3.94924 3.94945 0.665039 8 0.665039ZM8 6.24316C8.96807 6.24332 9.75684 7.03217 9.75684 8C9.75684 8.96773 8.9676 9.75668 8 9.75684C7.03169 9.75684 6.24316 8.9684 6.24316 8C6.24316 7.0316 7.03169 6.24316 8 6.24316Z" fill="#FAFAFA" stroke="#FAFAFA" stroke-width="1.33"/>
</svg>
